<svg width="25" height="24" viewBox="0 0 25 24" fill="none" xmlns="http://www.w3.org/2000/svg">
  <path d="M11.3961 16.7303C11.2648 16.7305 11.1348 16.7049 11.0135 16.6548C10.8922 16.6047 10.7819 16.5311 10.6891 16.4383L6.4471 12.1953C6.35153 12.1031 6.27527 11.9928 6.22277 11.8708C6.17028 11.7489 6.1426 11.6177 6.14136 11.4849C6.14011 11.3521 6.16532 11.2204 6.21551 11.0975C6.26571 10.9745 6.33988 10.8628 6.43371 10.7689C6.52753 10.6749 6.63913 10.6006 6.76199 10.5502C6.88485 10.4999 7.01651 10.4745 7.14929 10.4755C7.28207 10.4766 7.4133 10.5041 7.53534 10.5564C7.65738 10.6087 7.76778 10.6848 7.8601 10.7803L11.3951 14.3153L17.7601 7.95226C17.9476 7.76462 18.202 7.65915 18.4672 7.65906C18.7325 7.65896 18.987 7.76425 19.1746 7.95176C19.3622 8.13927 19.4677 8.39364 19.4678 8.65891C19.4679 8.92418 19.3626 9.17862 19.1751 9.36626L12.1031 16.4383C12.0103 16.5311 11.9 16.6047 11.7787 16.6548C11.6574 16.7049 11.5274 16.7305 11.3961 16.7303V16.7303Z" fill="#2FAB73"/>
  </svg>
